<svg width="273" height="139" viewBox="0 0 273 139" xmlns="http://www.w3.org/2000/svg" style="background-color:#EDEBEA"><defs><linearGradient x1="101.64%" y1="50%" x2="1.484%" y2="50%" id="a"><stop stop-color="#FFD1BD" offset="0%"/><stop stop-color="#F14900" offset="100%"/></linearGradient></defs><g fill="none"><path d="M136.5 260c-72.534 0-115.5-43.51-115.5-116 0-1.426-16.99-5-18.417-5-1.427 0-13.583 3.574-13.583 5 0 75.342 72.113 139 147.5 139s141.5-65.565 141.5-140.907c-.052-1.426-6.208-3.093-7.635-3.093-1.427 0-6.365 0-8.365 3.093-10 58.907-53.137 117.907-125.5 117.907z" fill="url(#a)"><animateTransform attributeName="transform" type="rotate" from="0 136.5 139" to="180 136.5 139" dur="32s" repeatCount="0" fill="freeze"/></path><path d="M0 0h273v278h-273v-278zm5.167 135.907c.276-72.255 58.97-130.744 131.333-130.744 72.534 0 131.334 58.765 131.334 131.256 0 1.426 1.156 2.581 2.583 2.581 1.427 0 2.583-1.156 2.583-2.581 0-75.342-61.113-136.419-136.5-136.419s-136.5 61.077-136.5 136.419h.052c0 1.426 1.156 2.581 2.583 2.581 1.427 0 2.583-1.156 2.583-2.581 0-.175-.017-.346-.051-.512z" fill="#fff"/></g></svg>